<svg id="Capa_1" enable-background="new 0 0 512.067 512.067" height="512" viewBox="0 0 512.067 512.067" width="512" xmlns="http://www.w3.org/2000/svg"><g><g><path d="m270.009 122.05h40v200h-40z" fill="#e3996d" transform="matrix(.707 .707 -.707 .707 241.955 -140.03)"/></g><g><path d="m233.44 306.903 87.147-87.147c-7.811 7.811-20.474 7.811-28.284 0-7.811-7.811-7.811-20.474 0-28.284l-87.147 87.147z" fill="#d87c41"/></g><g><path d="m360.72 179.624-28.284-28.284c-7.81-7.81-7.81-20.474 0-28.284 7.81-7.81 20.474-7.81 28.284 0h28.284v28.284c7.81 7.81 7.81 20.474 0 28.284-7.811 7.81-20.474 7.81-28.284 0z" fill="#d4d3d9"/></g><g><path d="m383.146 15.776c-5.304 5.304-8.284 12.499-8.284 20v101.421h101.421c7.501 0 14.696-2.98 20-8.284 11.046-11.046 11.046-28.954 0-40l-73.137-73.137c-11.046-11.046-28.954-11.046-40 0z" fill="#a4afba"/></g><g><path d="m452.643 109.342c-1.919 0-3.839-.732-5.303-2.196l-42.426-42.427c-2.929-2.93-2.929-7.678 0-10.607 2.929-2.928 7.678-2.928 10.606 0l42.426 42.427c2.929 2.93 2.929 7.678 0 10.607-1.464 1.464-3.384 2.196-5.303 2.196z"/></g><g><path d="m403.146 165.481-56.569-56.569c-7.81-7.81-7.81-20.474 0-28.284 7.81-7.81 20.474-7.81 28.284 0l56.569 56.569c7.81 7.81 7.81 20.474 0 28.284-7.81 7.811-20.474 7.811-28.284 0z" fill="#eaeaea"/></g><g><path d="m389.004 123.055c7.811-7.81 20.474-7.81 28.284 0l-42.426-42.426c-7.811-7.811-20.474-7.811-28.284 0-7.81 7.81-7.811 20.474 0 28.284l42.426 42.426c-7.811-7.81-7.811-20.474 0-28.284z" fill="#d4d3d9"/></g><g><path d="m12.304 315.624c-11.816 28.829-2.299 107.216 37.308 146.823s117.994 49.124 146.822 37.309c18.136-7.433 72.931-44.417 111.084-70.83 20.517-14.204 23.153-43.521 5.508-61.167l-168.726-168.726c-17.645-17.645-46.963-15.009-61.167 5.508-26.412 38.153-63.397 92.948-70.829 111.083z" fill="#eaeaea"/></g><g><path d="m74.785 378.106c7.433-18.136 44.417-72.931 70.83-111.083 14.204-20.517 43.521-23.153 61.167-5.508l-62.482-62.482c-17.645-17.645-46.963-15.009-61.167 5.508-26.413 38.153-63.397 92.948-70.83 111.084-11.814 28.828-2.298 107.215 37.309 146.822 10.354 10.354 23.36 18.647 37.436 25.045-18.075-39.77-20.99-88.094-12.263-109.386z" fill="#d4d3d9"/></g><g><path d="m77.896 434.162c-12.053-12.053-21.878-32.762-26.956-56.819-5.196-24.611-3.286-42.285-1.618-46.569.725-1.77 8.827-19.873 66.691-103.455l168.728 168.723c-83.601 57.874-101.688 65.968-103.477 66.701-4.265 1.661-21.94 3.57-46.55-1.626-24.055-5.076-44.765-14.902-56.818-26.955z" fill="#a4afba"/></g><g><path d="m116.014 227.32c-57.863 83.583-65.965 101.685-66.691 103.455-1.669 4.284-3.578 21.958 1.618 46.569 4.047 19.172 11.115 36.202 19.917 48.435-1.884-19.676-.43-37.043 3.927-47.673 7.433-18.136 44.417-72.931 70.83-111.083 1.393-2.011 2.934-3.845 4.592-5.51z" fill="#8596a4"/></g><g><g><path d="m112.561 318.682c-1.919 0-3.839-.732-5.303-2.196-2.929-2.93-2.929-7.678 0-10.607l8.485-8.485c2.929-2.928 7.678-2.928 10.606 0 2.929 2.93 2.929 7.678 0 10.607l-8.485 8.485c-1.464 1.464-3.384 2.196-5.303 2.196z"/></g><g><path d="m200.877 406.998c-1.919 0-3.839-.732-5.303-2.196-2.929-2.93-2.929-7.678 0-10.607l8.485-8.485c2.929-2.928 7.678-2.928 10.606 0 2.929 2.93 2.929 7.678 0 10.607l-8.485 8.485c-1.464 1.464-3.384 2.196-5.303 2.196z"/></g><g><path d="m167.11 374.282c-7.761 0-15.229-3.069-20.746-8.588-5.994-5.993-9.099-14.29-8.517-22.762.284-4.133 3.874-7.249 7.996-6.969 4.133.284 7.252 3.864 6.969 7.996-.285 4.145 1.231 8.2 4.159 11.128 2.927 2.929 6.981 4.441 11.129 4.16 4.128-.291 7.712 2.837 7.996 6.969.284 4.133-2.837 7.713-6.969 7.996-.673.046-1.347.07-2.017.07z"/></g></g><g><path d="m179.166 332.893c-11.716-11.716-11.716-30.711 0-42.426l42.426-42.426c11.716-11.716 30.711-11.716 42.426 0 11.716 11.716 11.716 30.711 0 42.426l-42.426 42.426c-11.715 11.716-30.71 11.716-42.426 0z" fill="#a4afba"/></g><g><path d="m207.45 304.609c-11.716-11.716-11.716-30.711 0-42.426l-28.284 28.284c-11.716 11.716-11.716 30.711 0 42.426s30.711 11.716 42.426 0l28.284-28.284c-11.715 11.716-30.71 11.716-42.426 0z" fill="#8596a4"/></g><path d="m501.586 83.61-73.137-73.138c-13.952-13.951-36.654-13.952-50.607.001-6.758 6.759-10.48 15.745-10.48 25.303v32.318c-9.052-2.237-19.027.171-26.087 7.231-5.194 5.194-8.055 12.101-8.055 19.446 0 5.881 1.838 11.478 5.235 16.142-4.229 1.301-8.105 3.621-11.322 6.838-8.883 8.884-10.399 22.38-4.562 32.847l-10.693 10.693c-2.929 2.93-2.929 7.678 0 10.607 1.464 1.464 3.384 2.196 5.303 2.196s3.839-.732 5.303-2.196l9.952-9.952 17.677 17.677-73.473 73.472c-1.785-3.748-4.22-7.261-7.318-10.359-3.099-3.099-6.612-5.533-10.359-7.318l42.329-42.329c2.929-2.93 2.929-7.678 0-10.607-2.928-2.928-7.677-2.928-10.606 0l-49.324 49.323c-9.116.348-18.129 3.988-25.073 10.931l-8.839 8.839-57.847-57.847c-9.99-9.989-23.79-14.983-37.856-13.723-14.065 1.269-26.742 8.655-34.78 20.266-28.504 41.174-64.065 94.114-71.604 112.509-13.267 32.372-2.521 113.504 38.945 154.97 30.424 30.424 82.193 44.311 120.397 44.309 13.866-.001 25.952-1.831 34.573-5.364 18.393-7.537 71.334-43.099 112.508-71.604 11.61-8.037 18.997-20.714 20.265-34.778 1.269-14.069-3.733-27.868-13.723-37.858l-57.846-57.845 8.839-8.839c6.944-6.944 10.583-15.957 10.931-25.074l81.208-81.207c4.15 2.314 8.774 3.479 13.4 3.479 7.042 0 14.084-2.681 19.445-8.041 3.278-3.278 5.548-7.186 6.822-11.336 4.798 3.488 10.478 5.236 16.159 5.236 7.042 0 14.084-2.681 19.445-8.041 7.06-7.061 9.469-17.036 7.232-26.088h32.318c9.559 0 18.545-3.723 25.303-10.481 6.759-6.759 10.481-15.745 10.481-25.304.002-9.559-3.72-18.546-10.479-25.304zm-193.863 289.452c6.835 6.835 10.258 16.277 9.39 25.903-.868 9.622-5.921 18.295-13.864 23.794-57.337 39.694-96.281 64.574-109.659 70.057-13.303 5.453-39.423 5.543-64.999.226-30.757-6.396-56.922-19.144-73.676-35.898s-29.503-42.919-35.898-73.676c-5.317-25.573-5.227-51.694.226-64.999 5.483-13.379 30.363-52.323 70.057-109.659 5.499-7.943 14.172-12.996 23.794-13.864 9.629-.859 19.067 2.555 25.903 9.391l57.846 57.846-17.679 17.679-57.847-57.845c-1.572-1.572-3.765-2.365-5.977-2.166-2.215.2-4.227 1.372-5.493 3.201-57.109 82.493-66.218 101.84-67.464 104.881-.017.04-.033.081-.049.121-2.373 6.093-4.127 25.283 1.268 50.84 5.37 25.441 15.937 47.519 28.991 60.573s35.131 23.62 60.572 28.99c12.395 2.617 23.287 3.553 31.915 3.553 9.163 0 15.773-1.057 18.907-2.277.042-.016.083-.032.125-.05 1.873-.768 9.935-4.522 35.062-20.592 3.49-2.231 4.51-6.869 2.278-10.359-2.23-3.488-6.869-4.511-10.359-2.277-24.504 15.671-31.76 18.959-32.597 19.319-3.174 1.14-19.437 2.819-42.231-1.992-22.671-4.786-42.012-13.869-53.064-24.922-11.052-11.052-20.135-30.393-24.92-53.063-4.819-22.826-3.126-39.094-1.985-42.25.593-1.388 8.337-18.451 60.778-94.561l52.019 52.017c-9.623 14.553-8.034 34.389 4.771 47.195 7.083 7.082 16.5 10.983 26.517 10.983 7.467 0 14.6-2.171 20.682-6.209l52.015 52.013c-13.403 9.234-25.803 17.652-36.95 25.085-3.446 2.298-4.377 6.954-2.08 10.4 1.445 2.168 3.823 3.341 6.247 3.341 1.43 0 2.875-.408 4.154-1.261 13.243-8.829 28.236-19.037 44.563-30.341 1.829-1.266 3.001-3.277 3.201-5.492s-.594-4.404-2.167-5.978l-57.847-57.845 17.678-17.678zm-49.007-87.9-42.427 42.428c-4.25 4.249-9.9 6.59-15.91 6.59s-11.66-2.341-15.91-6.591c-8.773-8.772-8.773-23.047 0-31.819l42.426-42.426c4.387-4.387 10.148-6.58 15.91-6.58s11.523 2.193 15.91 6.58c8.773 8.773 8.773 23.046.001 31.818zm124.985-110.842c-4.874 4.875-12.804 4.875-17.678 0l-28.284-28.284c-4.874-4.873-4.874-12.804 0-17.678 2.361-2.36 5.5-3.66 8.839-3.66s6.478 1.3 8.839 3.661c.001.001.002.001.003.002l28.284 28.284c4.87 4.874 4.869 12.802-.003 17.675zm42.426-14.142c-4.874 4.875-12.804 4.875-17.678 0l-14.135-14.135c-.002-.002-.005-.005-.007-.007-.001-.001-.003-.002-.004-.003l-28.279-28.279s-.001-.001-.001-.001c-.001-.001-.002-.002-.003-.002l-14.14-14.14c-2.36-2.36-3.661-5.499-3.661-8.838s1.3-6.479 3.661-8.839c4.874-4.875 12.805-4.873 17.678 0l56.568 56.569c4.874 4.871 4.874 12.802.001 17.675zm64.852-36.568c-3.925 3.926-9.145 6.088-14.696 6.088h-41.746l-52.175-52.176v-41.746c0-5.552 2.162-10.771 6.087-14.696 3.926-3.926 9.145-6.088 14.697-6.088s10.771 2.162 14.697 6.088l73.137 73.138c3.925 3.925 6.087 9.145 6.087 14.695 0 5.551-2.162 10.771-6.088 14.697z"/></g></svg>